<svg xmlns="http://www.w3.org/2000/svg" xmlns:xlink="http://www.w3.org/1999/xlink" viewBox="0 0 126 24"><path d="M 34.116 18.695 L 34.116 5.31 L 36.986 5.31 L 36.986 16.23 L 42.3 16.23 L 42.3 18.695 Z" fill="rgb(0,0,0)"></path><path d="M 45.404 18.19 C 44.619 17.775 44.014 17.185 43.589 16.42 C 43.164 15.655 42.949 14.775 42.949 13.78 C 42.949 12.785 43.164 11.905 43.589 11.14 C 44.014 10.375 44.624 9.785 45.404 9.37 C 46.188 8.955 47.093 8.75 48.128 8.75 C 49.163 8.75 50.068 8.955 50.852 9.37 C 51.637 9.785 52.242 10.375 52.667 11.14 C 53.092 11.905 53.307 12.785 53.307 13.78 C 53.307 14.775 53.092 15.67 52.667 16.43 C 52.242 17.19 51.637 17.775 50.852 18.19 C 50.068 18.605 49.163 18.81 48.128 18.81 C 47.093 18.81 46.188 18.605 45.404 18.19 Z M 49.913 15.83 C 50.353 15.305 50.573 14.625 50.573 13.785 C 50.573 12.945 50.353 12.26 49.913 11.74 C 49.473 11.22 48.878 10.955 48.123 10.955 C 47.368 10.955 46.793 11.215 46.354 11.74 C 45.914 12.265 45.694 12.945 45.694 13.785 C 45.694 14.625 45.914 15.31 46.354 15.83 C 46.793 16.355 47.383 16.615 48.123 16.615 C 48.863 16.615 49.473 16.355 49.913 15.83 Z" fill="rgb(0,0,0)"></path><path d="M 56.876 18.19 C 56.092 17.775 55.487 17.185 55.062 16.42 C 54.637 15.655 54.422 14.775 54.422 13.78 C 54.422 12.785 54.637 11.905 55.062 11.14 C 55.487 10.375 56.096 9.785 56.876 9.37 C 57.661 8.955 58.566 8.75 59.601 8.75 C 60.636 8.75 61.54 8.955 62.325 9.37 C 63.11 9.785 63.715 10.375 64.14 11.14 C 64.565 11.905 64.78 12.785 64.78 13.78 C 64.78 14.775 64.565 15.67 64.14 16.43 C 63.715 17.19 63.11 17.775 62.325 18.19 C 61.54 18.605 60.636 18.81 59.601 18.81 C 58.566 18.81 57.661 18.605 56.876 18.19 Z M 61.385 15.83 C 61.825 15.305 62.045 14.625 62.045 13.785 C 62.045 12.945 61.825 12.26 61.385 11.74 C 60.946 11.22 60.351 10.955 59.596 10.955 C 58.841 10.955 58.266 11.215 57.826 11.74 C 57.386 12.265 57.166 12.945 57.166 13.785 C 57.166 14.625 57.386 15.31 57.826 15.83 C 58.266 16.355 58.856 16.615 59.596 16.615 C 60.336 16.615 60.946 16.355 61.385 15.83 Z" fill="rgb(0,0,0)"></path><path d="M 66.269 5.31 L 68.964 5.31 L 68.964 13.055 L 72.823 8.865 L 75.843 8.865 L 72.343 12.71 L 76.032 18.695 L 72.918 18.695 L 70.434 14.715 L 68.964 16.3 L 68.964 18.69 L 66.269 18.69 Z" fill="rgb(0,0,0)"></path><path d="M 78.737 15.425 C 78.778 15.86 78.987 16.21 79.367 16.475 C 79.747 16.74 80.242 16.875 80.842 16.875 C 81.442 16.875 81.867 16.785 82.197 16.6 C 82.527 16.415 82.692 16.15 82.692 15.805 C 82.692 15.55 82.617 15.36 82.462 15.23 C 82.307 15.105 82.092 15.01 81.812 14.955 C 81.532 14.895 81.072 14.83 80.437 14.755 C 79.572 14.64 78.853 14.495 78.278 14.315 C 77.703 14.135 77.243 13.855 76.903 13.475 C 76.558 13.09 76.388 12.585 76.388 11.945 C 76.388 11.305 76.563 10.745 76.913 10.255 C 77.263 9.765 77.758 9.385 78.393 9.12 C 79.028 8.855 79.762 8.72 80.592 8.72 C 81.932 8.735 83.012 9.02 83.832 9.58 C 84.651 10.14 85.096 10.92 85.161 11.915 L 82.597 11.915 C 82.557 11.545 82.367 11.245 82.012 11.005 C 81.657 10.765 81.212 10.65 80.662 10.65 C 80.152 10.65 79.742 10.745 79.427 10.935 C 79.112 11.125 78.957 11.38 78.957 11.7 C 78.957 11.93 79.043 12.1 79.207 12.215 C 79.372 12.33 79.592 12.415 79.857 12.465 C 80.127 12.515 80.572 12.575 81.197 12.635 C 82.522 12.79 83.537 13.07 84.246 13.485 C 84.956 13.9 85.306 14.61 85.306 15.615 C 85.306 16.25 85.116 16.815 84.741 17.295 C 84.366 17.78 83.841 18.155 83.172 18.415 C 82.502 18.675 81.727 18.805 80.847 18.805 C 79.482 18.805 78.373 18.505 77.523 17.895 C 76.668 17.29 76.218 16.465 76.163 15.42 L 78.728 15.42 Z" fill="rgb(0,0,0)"></path><path d="M 94.788 17.79 C 93.953 18.47 92.873 18.815 91.548 18.815 C 90.528 18.815 89.639 18.61 88.874 18.195 C 88.109 17.78 87.519 17.19 87.104 16.425 C 86.689 15.66 86.484 14.78 86.484 13.785 C 86.484 12.79 86.689 11.895 87.104 11.135 C 87.519 10.375 88.109 9.79 88.884 9.375 C 89.654 8.96 90.549 8.755 91.568 8.755 C 92.883 8.755 93.953 9.09 94.783 9.76 C 95.612 10.43 96.122 11.355 96.312 12.54 L 93.523 12.54 C 93.408 12.055 93.178 11.67 92.833 11.385 C 92.488 11.1 92.063 10.955 91.553 10.955 C 90.853 10.955 90.294 11.215 89.869 11.74 C 89.444 12.265 89.239 12.945 89.239 13.785 C 89.239 14.625 89.449 15.31 89.869 15.83 C 90.289 16.35 90.848 16.615 91.553 16.615 C 92.078 16.615 92.513 16.47 92.863 16.175 C 93.213 15.88 93.438 15.48 93.543 14.97 L 96.317 14.97 C 96.137 16.17 95.632 17.11 94.798 17.79 Z" fill="rgb(0,0,0)"></path><path d="M 99.701 18.19 C 98.917 17.775 98.312 17.185 97.887 16.42 C 97.462 15.655 97.247 14.775 97.247 13.78 C 97.247 12.785 97.462 11.905 97.887 11.14 C 98.312 10.375 98.922 9.785 99.701 9.37 C 100.486 8.955 101.391 8.75 102.426 8.75 C 103.461 8.75 104.366 8.955 105.15 9.37 C 105.935 9.785 106.54 10.375 106.965 11.14 C 107.39 11.905 107.605 12.785 107.605 13.78 C 107.605 14.775 107.39 15.67 106.965 16.43 C 106.54 17.19 105.935 17.775 105.15 18.19 C 104.366 18.605 103.461 18.81 102.426 18.81 C 101.391 18.81 100.486 18.605 99.701 18.19 Z M 104.211 15.83 C 104.65 15.305 104.87 14.625 104.87 13.785 C 104.87 12.945 104.65 12.26 104.211 11.74 C 103.771 11.22 103.176 10.955 102.421 10.955 C 101.666 10.955 101.091 11.215 100.651 11.74 C 100.211 12.265 99.992 12.945 99.992 13.785 C 99.992 14.625 100.211 15.31 100.651 15.83 C 101.091 16.355 101.681 16.615 102.421 16.615 C 103.161 16.615 103.771 16.355 104.211 15.83 Z" fill="rgb(0,0,0)"></path><path d="M 118.349 8.87 L 118.349 18.7 L 115.959 18.7 L 115.709 17.515 C 115.365 17.92 114.965 18.24 114.505 18.47 C 114.045 18.7 113.485 18.815 112.82 18.815 C 111.675 18.815 110.736 18.46 110.011 17.755 C 109.286 17.05 108.921 15.865 108.921 14.21 L 108.921 8.875 L 111.615 8.875 L 111.615 13.885 C 111.615 14.775 111.77 15.45 112.085 15.905 C 112.395 16.355 112.88 16.585 113.53 16.585 C 114.18 16.585 114.73 16.335 115.1 15.83 C 115.47 15.325 115.654 14.62 115.654 13.715 L 115.654 8.875 L 118.349 8.875 Z" fill="rgb(0,0,0)"></path><path d="M 120.932 11.145 L 119.308 11.145 L 119.308 8.87 L 120.932 8.87 L 120.932 6.115 L 123.627 6.115 L 123.627 8.87 L 125.861 8.87 L 125.861 11.145 L 123.627 11.145 L 123.627 15.45 C 123.627 15.795 123.702 16.04 123.847 16.195 C 123.992 16.35 124.242 16.425 124.581 16.425 L 125.976 16.425 L 125.976 18.7 L 123.742 18.7 C 121.867 18.7 120.932 17.765 120.932 15.89 Z" fill="rgb(0,0,0)"></path><path d="M 14.865 2.57 L 0.028 11.14 L 0.028 6 L 10.416 0 Z" fill="rgb(0,0,0)"></path><path d="M 20.809 6 L 20.809 8.965 L 2.598 19.485 L 0.028 18 L 0.028 15.205 L 18.389 4.6 Z" fill="rgb(0,0,0)"></path><path d="M 6.117 21.515 L 20.809 13.03 L 20.809 18 L 10.416 24 Z" fill="rgb(0,0,0)"></path></svg>