<svg xmlns="http://www.w3.org/2000/svg" xmlns:xlink="http://www.w3.org/1999/xlink" viewBox="0 0 168 32"><path d="M 45.488 24.927 L 45.488 7.08 L 49.314 7.08 L 49.314 21.64 L 56.399 21.64 L 56.399 24.927 Z" fill="rgb(255, 255, 255)"></path><path d="M 60.538 24.253 C 59.492 23.7 58.685 22.913 58.119 21.893 C 57.552 20.873 57.266 19.7 57.266 18.373 C 57.266 17.047 57.552 15.873 58.119 14.853 C 58.685 13.833 59.499 13.047 60.538 12.493 C 61.585 11.94 62.791 11.667 64.171 11.667 C 65.551 11.667 66.757 11.94 67.803 12.493 C 68.85 13.047 69.656 13.833 70.223 14.853 C 70.789 15.873 71.076 17.047 71.076 18.373 C 71.076 19.7 70.789 20.893 70.223 21.907 C 69.656 22.92 68.85 23.7 67.803 24.253 C 66.757 24.807 65.551 25.08 64.171 25.08 C 62.791 25.08 61.585 24.807 60.538 24.253 Z M 66.55 21.107 C 67.137 20.407 67.43 19.5 67.43 18.38 C 67.43 17.26 67.137 16.347 66.55 15.653 C 65.964 14.96 65.171 14.607 64.164 14.607 C 63.158 14.607 62.391 14.953 61.805 15.653 C 61.218 16.353 60.925 17.26 60.925 18.38 C 60.925 19.5 61.218 20.413 61.805 21.107 C 62.391 21.807 63.178 22.153 64.164 22.153 C 65.151 22.153 65.964 21.807 66.55 21.107 Z" fill="rgb(255, 255, 255)"></path><path d="M 75.835 24.253 C 74.789 23.7 73.982 22.913 73.416 21.893 C 72.849 20.873 72.563 19.7 72.563 18.373 C 72.563 17.047 72.849 15.873 73.416 14.853 C 73.982 13.833 74.795 13.047 75.835 12.493 C 76.882 11.94 78.088 11.667 79.468 11.667 C 80.847 11.667 82.054 11.94 83.1 12.493 C 84.147 13.047 84.953 13.833 85.52 14.853 C 86.086 15.873 86.373 17.047 86.373 18.373 C 86.373 19.7 86.086 20.893 85.52 21.907 C 84.953 22.92 84.147 23.7 83.1 24.253 C 82.054 24.807 80.847 25.08 79.468 25.08 C 78.088 25.08 76.882 24.807 75.835 24.253 Z M 81.847 21.107 C 82.434 20.407 82.727 19.5 82.727 18.38 C 82.727 17.26 82.434 16.347 81.847 15.653 C 81.261 14.96 80.467 14.607 79.461 14.607 C 78.455 14.607 77.688 14.953 77.102 15.653 C 76.515 16.353 76.222 17.26 76.222 18.38 C 76.222 19.5 76.515 20.413 77.102 21.107 C 77.688 21.807 78.475 22.153 79.461 22.153 C 80.447 22.153 81.261 21.807 81.847 21.107 Z" fill="rgb(255, 255, 255)"></path><path d="M 88.359 7.08 L 91.952 7.08 L 91.952 17.407 L 97.097 11.82 L 101.123 11.82 L 96.458 16.947 L 101.377 24.927 L 97.224 24.927 L 93.911 19.62 L 91.952 21.733 L 91.952 24.92 L 88.359 24.92 Z" fill="rgb(255, 255, 255)"></path><path d="M 104.983 20.567 C 105.037 21.147 105.317 21.613 105.823 21.967 C 106.33 22.32 106.99 22.5 107.789 22.5 C 108.589 22.5 109.156 22.38 109.596 22.133 C 110.036 21.887 110.256 21.533 110.256 21.073 C 110.256 20.733 110.156 20.48 109.949 20.307 C 109.742 20.14 109.456 20.013 109.083 19.94 C 108.709 19.86 108.096 19.773 107.25 19.673 C 106.097 19.52 105.137 19.327 104.37 19.087 C 103.604 18.847 102.991 18.473 102.537 17.967 C 102.077 17.453 101.851 16.78 101.851 15.927 C 101.851 15.073 102.084 14.327 102.551 13.673 C 103.017 13.02 103.677 12.513 104.523 12.16 C 105.37 11.807 106.35 11.627 107.456 11.627 C 109.243 11.647 110.682 12.027 111.775 12.773 C 112.868 13.52 113.462 14.56 113.548 15.887 L 110.129 15.887 C 110.076 15.393 109.822 14.993 109.349 14.673 C 108.876 14.353 108.283 14.2 107.549 14.2 C 106.87 14.2 106.323 14.327 105.903 14.58 C 105.483 14.833 105.277 15.173 105.277 15.6 C 105.277 15.907 105.39 16.133 105.61 16.287 C 105.83 16.44 106.123 16.553 106.476 16.62 C 106.836 16.687 107.429 16.767 108.263 16.847 C 110.029 17.053 111.382 17.427 112.329 17.98 C 113.275 18.533 113.741 19.48 113.741 20.82 C 113.741 21.667 113.488 22.42 112.988 23.06 C 112.488 23.707 111.789 24.207 110.895 24.553 C 110.002 24.9 108.969 25.073 107.796 25.073 C 105.977 25.073 104.497 24.673 103.364 23.86 C 102.224 23.053 101.624 21.953 101.551 20.56 L 104.97 20.56 Z" fill="rgb(255, 255, 255)"></path><path d="M 126.383 23.72 C 125.27 24.627 123.831 25.087 122.064 25.087 C 120.705 25.087 119.518 24.813 118.499 24.26 C 117.479 23.707 116.692 22.92 116.139 21.9 C 115.586 20.88 115.313 19.707 115.313 18.38 C 115.313 17.053 115.586 15.86 116.139 14.847 C 116.692 13.833 117.479 13.054 118.512 12.5 C 119.538 11.947 120.731 11.674 122.091 11.674 C 123.844 11.674 125.27 12.12 126.377 13.014 C 127.483 13.907 128.163 15.14 128.416 16.72 L 124.697 16.72 C 124.544 16.073 124.237 15.56 123.777 15.18 C 123.317 14.8 122.751 14.607 122.071 14.607 C 121.138 14.607 120.391 14.953 119.825 15.653 C 119.258 16.353 118.985 17.26 118.985 18.38 C 118.985 19.5 119.265 20.413 119.825 21.107 C 120.385 21.8 121.131 22.153 122.071 22.153 C 122.771 22.153 123.351 21.96 123.817 21.567 C 124.284 21.173 124.584 20.64 124.724 19.96 L 128.423 19.96 C 128.183 21.56 127.51 22.813 126.397 23.72 Z" fill="rgb(255, 255, 255)"></path><path d="M 132.935 24.253 C 131.889 23.7 131.082 22.913 130.516 21.893 C 129.949 20.873 129.663 19.7 129.663 18.373 C 129.663 17.047 129.949 15.873 130.516 14.853 C 131.082 13.833 131.896 13.047 132.935 12.493 C 133.981 11.94 135.188 11.667 136.568 11.667 C 137.948 11.667 139.155 11.94 140.2 12.493 C 141.247 13.047 142.053 13.833 142.62 14.853 C 143.187 15.873 143.473 17.047 143.473 18.373 C 143.473 19.7 143.187 20.893 142.62 21.907 C 142.053 22.92 141.247 23.7 140.2 24.253 C 139.155 24.807 137.948 25.08 136.568 25.08 C 135.188 25.08 133.981 24.807 132.935 24.253 Z M 138.948 21.107 C 139.533 20.407 139.827 19.5 139.827 18.38 C 139.827 17.26 139.533 16.347 138.948 15.653 C 138.361 14.96 137.568 14.607 136.561 14.607 C 135.555 14.607 134.788 14.953 134.201 15.653 C 133.615 16.353 133.322 17.26 133.322 18.38 C 133.322 19.5 133.615 20.413 134.201 21.107 C 134.788 21.807 135.575 22.153 136.561 22.153 C 137.548 22.153 138.361 21.807 138.948 21.107 Z" fill="rgb(255, 255, 255)"></path><path d="M 157.799 11.827 L 157.799 24.933 L 154.612 24.933 L 154.279 23.353 C 153.82 23.893 153.287 24.32 152.673 24.627 C 152.06 24.933 151.313 25.087 150.427 25.087 C 148.9 25.087 147.648 24.613 146.681 23.673 C 145.715 22.733 145.228 21.153 145.228 18.947 L 145.228 11.833 L 148.82 11.833 L 148.82 18.513 C 148.82 19.7 149.027 20.6 149.447 21.207 C 149.86 21.807 150.507 22.113 151.373 22.113 C 152.24 22.113 152.973 21.78 153.467 21.107 C 153.96 20.433 154.205 19.493 154.205 18.287 L 154.205 11.833 L 157.799 11.833 Z" fill="rgb(255, 255, 255)"></path><path d="M 161.243 14.86 L 159.077 14.86 L 159.077 11.827 L 161.243 11.827 L 161.243 8.154 L 164.836 8.154 L 164.836 11.827 L 167.815 11.827 L 167.815 14.86 L 164.836 14.86 L 164.836 20.6 C 164.836 21.06 164.936 21.387 165.129 21.594 C 165.323 21.8 165.656 21.9 166.108 21.9 L 167.968 21.9 L 167.968 24.934 L 164.989 24.934 C 162.489 24.934 161.243 23.687 161.243 21.187 Z" fill="rgb(255, 255, 255)"></path><path d="M 19.82 3.427 L 0.038 14.853 L 0.038 8 L 13.888 0 Z" fill="rgb(255, 255, 255)"></path><path d="M 27.745 8 L 27.745 11.953 L 3.464 25.98 L 0.038 24 L 0.038 20.273 L 24.519 6.133 Z" fill="rgb(255, 255, 255)"></path><path d="M 8.156 28.687 L 27.745 17.373 L 27.745 24 L 13.888 32 Z" fill="rgb(255, 255, 255)"></path></svg>